<?xml version="1.0" encoding="UTF-8" standalone="no"?>
<!-- Created with Inkscape (http://www.inkscape.org/) -->

<svg
   width="682"
   height="684"
   version="1.1"
   viewBox="0 0 682 684"
   id="svg1"
   sodipodi:docname="arka_logo_nobg_nosmooth_opt.svg"
   inkscape:version="1.4.3 (0d15f75, 2025-12-25)"
   xmlns:inkscape="http://www.inkscape.org/namespaces/inkscape"
   xmlns:sodipodi="http://sodipodi.sourceforge.net/DTD/sodipodi-0.dtd"
   xmlns="http://www.w3.org/2000/svg"
   xmlns:svg="http://www.w3.org/2000/svg">
  <defs
     id="defs1" />
  <sodipodi:namedview
     id="namedview1"
     pagecolor="#ffffff"
     bordercolor="#000000"
     borderopacity="0.25"
     inkscape:showpageshadow="2"
     inkscape:pageopacity="0.0"
     inkscape:pagecheckerboard="0"
     inkscape:deskcolor="#d1d1d1"
     inkscape:zoom="0.43005325"
     inkscape:cx="341.81814"
     inkscape:cy="338.3302"
     inkscape:window-width="1080"
     inkscape:window-height="618"
     inkscape:window-x="0"
     inkscape:window-y="38"
     inkscape:window-maximized="0"
     inkscape:current-layer="svg1" />
  <path
     d="m 161,139 c 0.056,6.3 2.3,13 4.1,19 0.49,1.7 1.1,5.2 2.7,6.2 3.5,2.2 17,-4.2 18,0.96 0.7,2.9 -1.5,7.2 -1.9,10 -1.1,9.1 -2.2,19 -4.2,28 -2.6,12 -3.7,24 -5.7,36 -0.65,3.7 -0.31,11 -3,14 -2.6,2.6 -6.8,1.5 -10,1.8 -7.3,0.67 -14,1.9 -22,2.6 -32,3.1 -64,2.6 -96,1.2 0,54 8.2,106 32,154 19,39 46,77 80,105 41,33 84,58 136,71 16,4.2 34,8.2 51,8.6 8.8,0.22 18,-1.8 26,-3.1 26,-3.8 52,-11 76,-22 84,-36 151,-107 181,-193 14,-39 19,-79 18,-120 -32,1.4 -64,1 -96,-1.2 -7.5,-0.51 -15,-2.2 -22,-2.6 -3.3,-0.18 -7.6,0.77 -9.9,-2.3 -3.8,-5 -3.2,-18 -4.3,-24 -4.1,-21 -6.1,-43 -10,-65 l 19,1.9 6.4,-26 c -43,-5.8 -83,-15 -124,-29 -13,-4.6 -27,-10 -39,-16 -5.8,-2.8 -13,-8.9 -19,-9.1 -6.4,-0.26 -15,6.4 -21,9.2 -15,7.1 -30,13 -45,19 -25,10 -54,17 -80,21 -12,1.9 -24,2.2 -36,4.6 m 324,108 c -33,-4.5 -67,-18 -98,-31 -9.7,-4.2 -19,-8.3 -29,-13 -3.9,-2.1 -10,-6.9 -15,-6.9 -3,-0.04 -6.9,2.6 -9.6,4 -7.4,3.7 -15,8.1 -22,11 -25,10 -50,20 -76,27 -10,3 -23,8.2 -33,8.2 1.3,-29 9.7,-59 13,-88 31,-6.4 61,-17 91,-27 8.9,-3.1 17,-7.1 26,-10 3.4,-1.3 7.2,-3.9 11,-3.7 7.1,0.3 16,5.9 22,8.5 15,6.2 31,13 47,17 14,4.2 29,8.2 43,12 3.6,1 12,1 15,4.2 3.8,5.5 2.9,18 4.1,25 3.8,20 8.3,42 10,63 m -157,-12 v 33 c 0,3.5 1.3,10 -0.66,13 -3,4.7 -12,7 -17,8.9 -14,5.4 -27,12 -42,17 -48,16 -97,28 -148,31 -14,0.95 -28,0.035 -42,0.035 l -6.4,-51 c 58,0 115,-5.7 172,-22 17,-5 35,-11 52,-18 10,-4.2 22,-11 33,-13 m 286,52 c 0,12 -2.6,24 -3.8,36 -0.29,3.1 -0.36,12 -3,14 -3,2.3 -12,0.66 -16,0.66 -15,0 -28,-0.72 -43,-2.4 -38,-4.6 -75,-10 -112,-22 -22,-6.7 -42,-18 -64,-24 v 31 c 9.6,1.7 20,7.4 29,11 16,6 33,11 49,16 48,13 98,20 148,20 -0.36,5.7 -3.3,11 -5.6,16 -3.7,8.4 -7.2,17 -12,25 -1.9,3.5 -3.9,11 -7.9,12 -3.5,1.5 -7.3,-0.62 -11,-0.86 -9,-0.61 -18,-1.8 -27,-2.5 -40,-3.2 -84,-13 -121,-28 -13,-5.4 -28,-14 -42,-17 v 21 c 0,2.6 -0.74,6.6 1,8.7 2.7,3.3 9.8,4.8 14,6.3 11,4.3 22,8.8 34,12 43,13 89,27 134,27 v 3.8 c -5,2.6 -9,9.7 -13,14 -8.2,10 -17,20 -27,28 -2.9,2.3 -5.5,5.9 -9,7.4 -2.7,1.2 -6.8,-0.43 -9.6,-0.87 -8.2,-1.3 -16,-3.5 -24,-5.3 -21,-4.6 -42,-11 -62,-19 -13,-4.8 -27,-9.1 -38,-16 v 22 l 0.66,8.7 7,3.7 20,7.7 74,22 c -7,8.5 -23,15 -33,19 -27,11 -54,21 -83,24 v -332 c 10,3 21,8.8 31,13 18,7 36,13 54,18 56,16 112,21 170,21 m -286,26 v 36 c 0,3.6 1.4,11 -0.66,14 -2.6,4 -10,6 -15,7.6 -11,4.1 -22,10 -33,14 -42,14 -84,28 -129,31 -9.8,0.69 -19,2.5 -29,2.5 -2.5,9.4e-4 -6.7,1.4 -8.9,0.49 -3.9,-1.6 -6.6,-9.7 -8.4,-13 -6.1,-13 -14,-26 -17,-40 56,0 113,-9.3 166,-26 16,-4.8 32,-10 47,-17 8.6,-3.5 18,-9.3 27,-11 m 0,82 v 41 c 0,3.9 1.6,12 -0.66,16 -2.5,3.6 -10,5.5 -14,7.2 -13,5.6 -25,11 -38,16 -23,7.8 -45,15 -68,20 -6.9,1.6 -20,7.1 -27,4.8 -4.2,-1.4 -7.2,-5.5 -10,-8.4 -6.1,-5.8 -12,-12 -18,-18 -6.5,-6.4 -20,-18 -21,-27 18,0 37,-3.3 55,-6.8 29,-5.8 58,-12 86,-22 12,-4.2 24,-8.4 35,-13 7,-3 14,-7.7 22,-9.3 m 0,88 v 56 l -0.64,27 c -30,-5.6 -59,-13 -87,-27 -9,-4.4 -22,-9 -29,-17 l 64,-18 33,-13 z"
     fill="#d29604"
     id="path1" />
</svg>
